<?xml version="1.0" encoding="utf-8"?>
<!-- Generator: Adobe Illustrator 16.0.0, SVG Export Plug-In . SVG Version: 6.00 Build 0)  -->
<!DOCTYPE svg PUBLIC "-//W3C//DTD SVG 1.1//EN" "http://www.w3.org/Graphics/SVG/1.1/DTD/svg11.dtd">
<svg version="1.1" id="Layer_1" xmlns="http://www.w3.org/2000/svg" xmlns:xlink="http://www.w3.org/1999/xlink" x="0px" y="0px"
	 width="287.516px" height="76.824px" viewBox="0 0 287.516 76.824" enable-background="new 0 0 287.516 76.824"
	 xml:space="preserve">
<g>
	<g>
		<polygon fill="#9CC63D" points="26.063,75.767 26.063,39.242 62.587,39.242 		"/>
		<rect x="26.063" y="14.649" fill="#9CC63D" width="20.934" height="20.934"/>
		<rect x="11.653" y="24.844" fill="#9CC63D" width="10.742" height="10.739"/>
		<rect x="25.501" y="1.056" fill="#5F6378" width="9.724" height="9.724"/>
		<polygon fill="#5F6378" points="0,39.242 22.395,39.242 22.395,61.643 		"/>
	</g>
	<g>
		<path fill="#5F6378" d="M76.522,6.953c0-3.944,2.95-6.953,7.004-6.953c4.556,0,6.841,3.287,6.841,6.757
			c0,3.982-3.03,6.878-6.841,6.878C79.167,13.635,76.522,10.5,76.522,6.953z M88.4,7.371c0-3.25-1.439-6.761-5.204-6.761
			c-2.049,0-4.71,1.4-4.71,5.716c0,2.912,1.424,6.704,5.298,6.704C86.148,13.03,88.4,11.251,88.4,7.371z"/>
		<path fill="#5F6378" d="M111.16,5.868c0,0.531,0.054,0.531,0.651,0.531h1.34c0.807,0,1.439-0.033,1.675-0.115
			c0.218-0.08,0.37-0.177,0.485-0.691l0.18-0.784c0.101-0.113,0.437-0.113,0.515,0c0,0.467-0.078,1.261-0.078,1.989
			c0,0.708,0.078,1.457,0.078,1.912c-0.078,0.119-0.377,0.119-0.515,0l-0.189-0.773c-0.106-0.357-0.259-0.632-0.632-0.743
			c-0.282-0.079-0.771-0.101-1.52-0.101h-1.34c-0.597,0-0.651,0.022-0.651,0.529v2.738c0,2.071,0.039,2.371,1.2,2.468l0.667,0.055
			c0.124,0.083,0.082,0.434-0.03,0.491c-1.171-0.038-1.837-0.058-2.629-0.058c-0.863,0-1.539,0.02-2.459,0.058
			c-0.121-0.058-0.159-0.372-0.039-0.491l0.492-0.055c1.143-0.142,1.188-0.397,1.188-2.468V3.269c0-2.069-0.045-2.341-1.188-2.481
			l-0.315-0.037c-0.117-0.083-0.081-0.437,0.039-0.495c0.826,0.036,1.503,0.058,2.282,0.058h3.628c1.264,0,2.404,0,2.664-0.058
			c0,0.904,0.015,1.848,0.058,2.602c-0.058,0.116-0.327,0.174-0.473,0.062c-0.16-0.893-0.398-1.629-1.382-1.876
			c-0.431-0.116-1.08-0.116-1.906-0.116h-1.204c-0.593,0-0.593,0.04-0.593,0.783V5.868z"/>
		<path fill="#5F6378" d="M137.511,5.868c0,0.531,0.058,0.531,0.65,0.531h1.336c0.81,0,1.441-0.033,1.674-0.115
			c0.219-0.08,0.373-0.177,0.495-0.691l0.177-0.784c0.097-0.113,0.437-0.113,0.512,0c0,0.467-0.075,1.261-0.075,1.989
			c0,0.708,0.075,1.457,0.075,1.912c-0.075,0.119-0.376,0.119-0.512,0l-0.196-0.773c-0.103-0.357-0.257-0.632-0.629-0.743
			c-0.281-0.079-0.771-0.101-1.521-0.101h-1.336c-0.593,0-0.65,0.022-0.65,0.529v2.738c0,2.071,0.035,2.371,1.197,2.468l0.672,0.055
			c0.117,0.083,0.079,0.434-0.045,0.491c-1.161-0.038-1.824-0.058-2.618-0.058c-0.865,0-1.54,0.02-2.459,0.058
			c-0.113-0.058-0.159-0.372-0.039-0.491l0.491-0.055c1.143-0.142,1.183-0.397,1.183-2.468V3.269c0-2.069-0.04-2.341-1.183-2.481
			l-0.312-0.037c-0.116-0.083-0.078-0.437,0.044-0.495c0.824,0.036,1.488,0.058,2.276,0.058h3.629c1.261,0,2.404,0,2.661-0.058
			c0,0.904,0.025,1.848,0.068,2.602c-0.068,0.116-0.35,0.174-0.489,0.062c-0.152-0.893-0.388-1.629-1.375-1.876
			c-0.428-0.116-1.081-0.116-1.907-0.116h-1.202c-0.59,0-0.59,0.04-0.59,0.783V5.868z"/>
		<path fill="#5F6378" d="M164.133,13.635c-1.652,0-2.71-0.511-3.08-0.727c-0.229-0.437-0.479-1.836-0.523-2.766
			c0.099-0.137,0.389-0.177,0.473-0.058c0.295,1.012,1.105,2.946,3.389,2.946c1.659,0,2.464-1.088,2.464-2.277
			c0-0.861-0.183-1.826-1.619-2.756l-1.873-1.224c-0.985-0.642-2.124-1.773-2.124-3.383c0-1.876,1.454-3.391,4.019-3.391
			c0.613,0,1.321,0.113,1.83,0.257c0.26,0.073,0.531,0.119,0.692,0.119c0.174,0.47,0.359,1.575,0.359,2.404
			c-0.08,0.119-0.4,0.177-0.503,0.058c-0.25-0.947-0.781-2.228-2.676-2.228c-1.934,0-2.343,1.28-2.343,2.188
			c0,1.146,0.943,1.971,1.672,2.424l1.581,0.983c1.238,0.772,2.452,1.916,2.452,3.789C168.322,12.159,166.698,13.635,164.133,13.635
			z"/>
		<path fill="#5F6378" d="M190.216,6.953c-0.934,0-0.977,0.039-0.977,0.626v2.781c0,2.071,0.101,2.349,1.204,2.468l0.578,0.055
			c0.116,0.083,0.072,0.434-0.044,0.491c-1.069-0.038-1.738-0.058-2.507-0.058c-0.844,0-1.52,0.043-2.285,0.058
			c-0.115-0.058-0.151-0.372-0.035-0.491l0.332-0.055c1.098-0.202,1.145-0.397,1.145-2.468V3.269c0-2.069-0.136-2.399-1.17-2.481
			l-0.507-0.037c-0.117-0.083-0.077-0.437,0.045-0.495c0.956,0.015,1.632,0.058,2.476,0.058c0.769,0,1.438-0.021,2.292-0.058
			c0.116,0.058,0.153,0.412,0.038,0.495l-0.376,0.037c-1.143,0.112-1.186,0.412-1.186,2.481v2.263c0,0.612,0.043,0.636,0.977,0.636
			h5.647c0.943,0,0.984-0.024,0.984-0.636V3.269c0-2.069-0.041-2.369-1.205-2.481l-0.379-0.037c-0.106-0.083-0.07-0.437,0.053-0.495
			c0.902,0.036,1.572,0.058,2.379,0.058c0.771,0,1.441-0.021,2.327-0.058c0.11,0.058,0.153,0.412,0.041,0.495l-0.411,0.037
			c-1.157,0.112-1.186,0.412-1.186,2.481v7.091c0,2.071,0.028,2.327,1.186,2.468l0.468,0.055c0.114,0.083,0.078,0.434-0.048,0.491
			c-0.936-0.038-1.605-0.058-2.377-0.058c-0.807,0-1.518,0.02-2.379,0.058c-0.123-0.058-0.159-0.372-0.053-0.491l0.379-0.055
			c1.205-0.202,1.205-0.397,1.205-2.468V7.579c0-0.587-0.041-0.626-0.984-0.626H190.216z"/>
		<path fill="#5F6378" d="M217.25,6.953c0-3.944,2.949-6.953,7.012-6.953c4.554,0,6.839,3.287,6.839,6.757
			c0,3.982-3.04,6.878-6.839,6.878C219.886,13.635,217.25,10.5,217.25,6.953z M229.128,7.371c0-3.25-1.44-6.761-5.213-6.761
			c-2.042,0-4.696,1.4-4.696,5.716c0,2.912,1.415,6.704,5.291,6.704C226.877,13.03,229.128,11.251,229.128,7.371z"/>
		<path fill="#5F6378" d="M250.274,3.287c0-1.867-0.062-2.206-0.871-2.303l-0.63-0.083c-0.141-0.09-0.141-0.409,0.021-0.491
			c1.105-0.095,2.464-0.152,4.387-0.152c1.228,0,2.387,0.094,3.295,0.589c0.949,0.49,1.634,1.378,1.634,2.756
			c0,1.879-1.473,2.901-2.462,3.297c-0.095,0.115,0,0.314,0.104,0.473c1.583,2.536,2.621,4.116,3.96,5.237
			c0.336,0.3,0.821,0.516,1.353,0.556c0.107,0.037,0.12,0.195,0.027,0.274c-0.18,0.052-0.499,0.099-0.874,0.099
			c-1.672,0-2.682-0.492-4.075-2.485c-0.52-0.733-1.318-2.092-1.936-2.972c-0.295-0.437-0.604-0.632-1.394-0.632
			c-0.88,0-0.924,0.021-0.924,0.43v2.482c0,2.071,0.044,2.306,1.177,2.468l0.419,0.055c0.118,0.101,0.079,0.434-0.04,0.491
			c-0.889-0.038-1.556-0.058-2.343-0.058c-0.828,0-1.547,0.02-2.47,0.058c-0.119-0.058-0.157-0.344-0.033-0.491l0.49-0.055
			c1.133-0.142,1.185-0.397,1.185-2.468V3.287z M251.89,6.107c0,0.358,0,0.574,0.056,0.65c0.063,0.058,0.354,0.102,1.365,0.102
			c0.706,0,1.454-0.085,2.025-0.517c0.533-0.409,0.984-1.1,0.984-2.441c0-1.558-0.972-3.031-3.152-3.031
			c-1.223,0-1.278,0.076-1.278,0.633V6.107z"/>
		<path fill="#5F6378" d="M278.727,3.269c0-2.053-0.037-2.341-1.203-2.481l-0.313-0.037c-0.119-0.083-0.072-0.437,0.033-0.495
			c0.85,0.036,1.528,0.058,2.326,0.058h3.712c1.266,0,2.422,0,2.653-0.058c0.123,0.335,0.237,1.753,0.309,2.618
			c-0.071,0.119-0.384,0.157-0.479,0.045c-0.299-0.929-0.484-1.629-1.501-1.876c-0.415-0.098-1.046-0.116-1.915-0.116h-1.414
			c-0.592,0-0.592,0.04-0.592,0.783v3.943c0,0.55,0.058,0.55,0.642,0.55h1.146c0.832,0,1.44-0.037,1.681-0.122
			c0.236-0.074,0.373-0.189,0.48-0.684l0.152-0.814c0.103-0.11,0.432-0.11,0.51,0.022c0,0.479-0.078,1.24-0.078,1.991
			c0,0.707,0.078,1.457,0.078,1.896c-0.078,0.13-0.407,0.13-0.51,0.015l-0.181-0.767c-0.079-0.357-0.216-0.648-0.613-0.749
			c-0.274-0.079-0.745-0.094-1.52-0.094h-1.146c-0.584,0-0.642,0.015-0.642,0.535v2.774c0,1.044,0.058,1.717,0.372,2.043
			c0.237,0.242,0.649,0.459,2.387,0.459c1.517,0,2.083-0.083,2.521-0.299c0.359-0.2,0.889-0.884,1.398-1.91
			c0.146-0.098,0.418-0.037,0.494,0.135c-0.144,0.69-0.632,2.211-0.886,2.739c-1.774-0.038-3.527-0.058-5.282-0.058h-1.777
			c-0.844,0-1.514,0.02-2.675,0.058c-0.12-0.058-0.161-0.372-0.034-0.491l0.644-0.055c1.126-0.098,1.222-0.397,1.222-2.468V3.269z"
			/>
	</g>
	<g>
		<path fill="#9CC63D" d="M85.316,53.682c-3.857,0-6.29-1.191-7.167-1.7c-0.552-1.011-1.149-4.276-1.236-6.436
			c0.225-0.329,0.915-0.416,1.092-0.136c0.694,2.334,2.585,6.845,7.907,6.845c3.866,0,5.747-2.527,5.747-5.289
			c0-2.024-0.413-4.275-3.767-6.431l-4.372-2.848c-2.294-1.515-4.958-4.145-4.958-7.904c0-4.364,3.399-7.9,9.375-7.9
			c1.43,0,3.083,0.275,4.274,0.593c0.592,0.187,1.243,0.276,1.609,0.276c0.416,1.103,0.826,3.672,0.826,5.609
			c-0.184,0.278-0.92,0.409-1.149,0.134c-0.602-2.208-1.838-5.187-6.25-5.187c-4.503,0-5.462,2.979-5.462,5.099
			c0,2.665,2.2,4.601,3.898,5.652l3.685,2.295c2.887,1.792,5.737,4.466,5.737,8.828C95.105,50.234,91.293,53.682,85.316,53.682z"/>
		<path fill="#9CC63D" d="M111.282,38.103c-2.208,0-2.304,0.095-2.304,1.474v6.477c0,4.824,0.232,5.466,2.805,5.739l1.338,0.136
			c0.276,0.192,0.184,1.007-0.094,1.156c-2.479-0.097-4.049-0.149-5.839-0.149c-1.974,0-3.538,0.096-5.331,0.149
			c-0.269-0.149-0.37-0.878-0.089-1.156l0.783-0.136c2.575-0.458,2.663-0.915,2.663-5.739V29.506c0-4.824-0.323-5.6-2.71-5.789
			l-1.194-0.098c-0.281-0.18-0.181-1.008,0.092-1.143c2.248,0.045,3.813,0.135,5.786,0.135c1.79,0,3.36-0.043,5.328-0.135
			c0.282,0.135,0.37,0.963,0.098,1.143l-0.871,0.098c-2.669,0.274-2.765,0.965-2.765,5.789v5.288c0,1.424,0.096,1.467,2.304,1.467
			h13.137c2.213,0,2.297-0.043,2.297-1.467v-5.288c0-4.824-0.084-5.515-2.798-5.789l-0.871-0.098c-0.28-0.18-0.183-1.008,0.09-1.143
			c2.113,0.091,3.677,0.135,5.56,0.135c1.793,0,3.357-0.043,5.421-0.135c0.279,0.135,0.372,0.963,0.094,1.143l-0.963,0.098
			c-2.667,0.274-2.759,0.965-2.759,5.789v16.547c0,4.824,0.092,5.422,2.759,5.739l1.103,0.136c0.272,0.192,0.181,1.007-0.094,1.156
			c-2.203-0.097-3.768-0.149-5.561-0.149c-1.883,0-3.534,0.053-5.56,0.149c-0.272-0.149-0.37-0.878-0.09-1.156l0.871-0.136
			c2.798-0.458,2.798-0.915,2.798-5.739v-6.477c0-1.379-0.084-1.474-2.297-1.474H111.282z"/>
		<path fill="#9CC63D" d="M155.99,42.281c-0.318-1.014-0.51-1.151-1.884-1.151h-6.94c-1.147,0-1.419,0.138-1.745,1.106l-1.602,4.824
			c-0.696,2.071-1.021,3.308-1.021,3.816c0,0.553,0.233,0.824,1.338,0.915l1.516,0.136c0.321,0.232,0.321,0.967-0.096,1.156
			c-1.19-0.097-2.618-0.097-4.774-0.149c-1.516,0-3.167,0.096-4.417,0.149c-0.27-0.189-0.368-0.924-0.09-1.156l1.514-0.136
			c1.105-0.091,2.119-0.595,2.762-2.245c0.824-2.116,2.116-5.107,4.044-10.25l4.689-12.409c0.646-1.656,0.915-2.523,0.781-3.269
			c1.102-0.312,1.881-1.143,2.382-1.736c0.277,0,0.598,0.091,0.699,0.41c0.59,2.023,1.329,4.131,2.02,6.16l6.296,18.472
			c1.324,3.953,1.925,4.644,3.905,4.868l1.234,0.136c0.324,0.232,0.235,0.967,0,1.156c-1.88-0.097-3.492-0.149-5.558-0.149
			c-2.199,0-3.946,0.096-5.278,0.149c-0.367-0.189-0.419-0.924-0.094-1.156l1.327-0.136c0.966-0.091,1.607-0.362,1.607-0.821
			c0-0.505-0.23-1.336-0.597-2.437L155.99,42.281z M146.89,38.197c-0.366,1.051-0.321,1.1,0.966,1.1h5.654
			c1.334,0,1.421-0.184,1.015-1.424l-2.49-7.49c-0.359-1.101-0.772-2.346-1.047-2.9h-0.096c-0.139,0.235-0.602,1.335-1.103,2.716
			L146.89,38.197z"/>
		<path fill="#9CC63D" d="M173.631,29.551c0-4.363-0.134-5.141-2.016-5.374l-1.479-0.187c-0.323-0.229-0.323-0.959,0.046-1.146
			c2.575-0.235,5.747-0.37,10.256-0.37c2.847,0,5.558,0.233,7.669,1.378c2.203,1.146,3.824,3.22,3.824,6.434
			c0,4.369-3.46,6.761-5.753,7.675c-0.228,0.276,0,0.736,0.229,1.104c3.678,5.931,6.11,9.606,9.235,12.225
			c0.782,0.689,1.93,1.198,3.174,1.285c0.234,0.096,0.279,0.453,0.044,0.646c-0.41,0.138-1.14,0.232-2.017,0.232
			c-3.907,0-6.254-1.15-9.518-5.806c-1.193-1.688-3.075-4.866-4.499-6.925c-0.693-1.012-1.425-1.477-3.266-1.477
			c-2.067,0-2.161,0.049-2.161,1.012v5.793c0,4.824,0.094,5.377,2.766,5.739l0.959,0.136c0.277,0.232,0.187,1.007-0.093,1.156
			c-2.063-0.097-3.632-0.149-5.471-0.149c-1.931,0-3.577,0.053-5.749,0.149c-0.264-0.149-0.357-0.829-0.082-1.156l1.141-0.136
			c2.669-0.317,2.76-0.915,2.76-5.739V29.551z M177.4,36.126c0,0.828,0,1.332,0.145,1.509c0.131,0.143,0.814,0.238,3.161,0.238
			c1.659,0,3.405-0.186,4.731-1.194c1.245-0.964,2.309-2.576,2.309-5.697c0-3.629-2.26-7.076-7.357-7.076
			c-2.844,0-2.988,0.184-2.988,1.46V36.126z"/>
		<path fill="#9CC63D" d="M205.107,29.604c0-4.88-0.088-5.655-2.795-5.887l-1.154-0.098c-0.279-0.18-0.188-1.008,0.088-1.143
			c2.303,0.091,3.861,0.135,5.795,0.135c1.833,0,3.397-0.043,5.692-0.135c0.284,0.135,0.372,0.963,0.101,1.143l-1.152,0.098
			c-2.709,0.231-2.808,1.007-2.808,5.887v16.357c0,4.863,0.099,5.514,2.808,5.831l1.152,0.136c0.271,0.192,0.184,1.007-0.101,1.156
			c-2.295-0.097-3.859-0.149-5.692-0.149c-1.934,0-3.492,0.053-5.795,0.149c-0.275-0.149-0.367-0.878-0.088-1.156l1.154-0.136
			c2.707-0.317,2.795-0.968,2.795-5.831V29.604z"/>
		<path fill="#9CC63D" d="M247.2,45.13c0,1.384,0,6.852,0.146,8.044c-0.092,0.281-0.364,0.508-0.883,0.508
			c-0.543-0.787-1.881-2.39-5.879-6.942l-10.659-12.138c-1.241-1.42-4.369-5.19-5.335-6.196h-0.086
			c-0.185,0.546-0.229,1.604-0.229,2.982v10.018c0,2.162,0.045,8.142,0.827,9.517c0.276,0.508,1.194,0.779,2.342,0.87l1.42,0.136
			c0.276,0.377,0.23,0.925-0.09,1.156c-2.07-0.097-3.672-0.149-5.379-0.149c-1.929,0-3.168,0.053-4.78,0.149
			c-0.314-0.231-0.367-0.878-0.096-1.156l1.248-0.136c1.061-0.14,1.796-0.412,2.025-0.915c0.645-1.656,0.597-7.261,0.597-9.472
			V28.128c0-1.284-0.053-2.249-1.013-3.31c-0.644-0.641-1.751-0.964-2.857-1.102l-0.771-0.098c-0.275-0.272-0.275-0.957,0.097-1.143
			c1.923,0.135,4.354,0.135,5.183,0.135c0.736,0,1.527-0.043,2.12-0.135c0.919,2.343,6.336,8.414,7.858,10.112l4.456,5.005
			c3.169,3.537,5.421,6.11,7.586,8.321h0.09c0.18-0.232,0.18-0.973,0.18-1.928v-9.837c0-2.164-0.051-8.133-0.917-9.517
			c-0.274-0.412-1.008-0.685-2.847-0.916l-0.786-0.098c-0.321-0.272-0.276-1.008,0.095-1.143c2.111,0.091,3.672,0.135,5.42,0.135
			c1.98,0,3.171-0.043,4.736-0.135c0.365,0.233,0.365,0.871,0.098,1.143l-0.65,0.098c-1.471,0.231-2.387,0.599-2.57,0.965
			c-0.783,1.652-0.694,7.351-0.694,9.468V45.13z"/>
		<path fill="#9CC63D" d="M284.195,48.251c0,1.847,0.266,2.946,1.098,3.268c0.136,0.134,0.136,0.409-0.046,0.553
			c-0.551,0-1.376,0.184-2.255,0.419c-2.426,0.635-5.742,1.191-8.226,1.191c-5.472,0-10.478-1.521-14.014-5.103
			c-2.749-2.761-4.222-6.392-4.222-10.435c0-3.909,1.292-7.856,4.132-10.888c3.081-3.217,7.631-5.374,14.568-5.374
			c2.622,0,5.053,0.495,5.842,0.684c0.867,0.185,2.298,0.508,2.84,0.413c0,1.518,0.282,3.908,0.694,6.667
			c-0.146,0.363-0.971,0.408-1.236,0.137c-1.299-4.965-4.74-6.529-9.425-6.529c-8.916,0-12.819,6.35-12.819,13.232
			c0,8.826,4.554,15.769,13.783,15.769c2.853,0,4.549-0.603,5.057-1.378c0.223-0.325,0.457-1.149,0.457-2.626v-1.825
			c0-3.865-0.14-4.145-2.984-4.465l-2.021-0.229c-0.375-0.184-0.33-1.008,0-1.15c1.332,0.094,3.853,0.143,6.57,0.143
			c1.789,0,3.346-0.049,4.865-0.143c0.32,0.185,0.37,0.869,0.052,1.15l-0.736,0.088c-1.934,0.235-1.974,1.516-1.974,3.861V48.251z"
			/>
	</g>
	<g>
		<path fill="#5F6378" d="M116.164,76.824c-1.295,0-2.107-0.406-2.404-0.579c-0.18-0.333-0.384-1.424-0.418-2.15
			c0.07-0.11,0.309-0.135,0.369-0.049c0.23,0.788,0.867,2.305,2.652,2.305c1.299,0,1.925-0.856,1.925-1.777
			c0-0.68-0.137-1.433-1.259-2.161l-1.466-0.95c-0.775-0.508-1.662-1.39-1.662-2.652c0-1.46,1.14-2.651,3.144-2.651
			c0.477,0,1.029,0.098,1.428,0.201c0.201,0.063,0.417,0.104,0.546,0.104c0.135,0.355,0.275,1.22,0.275,1.869
			c-0.063,0.092-0.312,0.138-0.385,0.049c-0.205-0.736-0.621-1.74-2.103-1.74c-1.503,0-1.827,1.004-1.827,1.708
			c0,0.897,0.731,1.543,1.305,1.895l1.238,0.772c0.968,0.597,1.927,1.494,1.927,2.961C119.448,75.664,118.166,76.824,116.164,76.824
			z"/>
		<path fill="#5F6378" d="M127.459,71.598c0-3.079,2.31-5.439,5.484-5.439c3.557,0,5.35,2.572,5.35,5.287
			c0,3.117-2.374,5.379-5.35,5.379C129.525,76.824,127.459,74.372,127.459,71.598z M136.75,71.922c0-2.537-1.125-5.281-4.073-5.281
			c-1.594,0-3.678,1.088-3.678,4.466c0,2.281,1.113,5.244,4.146,5.244C134.997,76.351,136.75,74.956,136.75,71.922z"/>
		<path fill="#5F6378" d="M147.475,68.719c0-1.617-0.036-1.864-0.996-1.943l-0.39-0.028c-0.092-0.062-0.066-0.339,0.032-0.388
			c0.86,0.034,1.385,0.049,2.006,0.049c0.604,0,1.115-0.015,1.889-0.049c0.096,0.049,0.135,0.326,0.032,0.388l-0.37,0.028
			c-0.906,0.079-0.938,0.326-0.938,1.943v5.357c0,0.972,0.045,1.373,0.328,1.668c0.162,0.168,0.461,0.353,1.675,0.353
			c1.311,0,1.631-0.062,1.88-0.196c0.307-0.191,0.703-0.739,1.021-1.528c0.084-0.082,0.379-0.008,0.379,0.092
			c0,0.171-0.43,1.739-0.648,2.155c-0.78-0.028-2.251-0.046-3.831-0.046h-1.416c-0.652,0-1.146,0.018-2.006,0.046
			c-0.099-0.046-0.124-0.289-0.032-0.379l0.465-0.045c0.885-0.099,0.921-0.313,0.921-1.936V68.719z"/>
		<path fill="#5F6378" d="M169.566,70.271c0-0.951-0.029-2.729-0.284-3.186c-0.112-0.183-0.388-0.299-0.775-0.322l-0.39-0.033
			c-0.084-0.111-0.055-0.309,0.036-0.371c0.589,0.034,1.15,0.049,1.757,0.049c0.647,0,1.069-0.015,1.615-0.049
			c0.123,0.08,0.115,0.281,0.03,0.371l-0.364,0.033c-0.39,0.023-0.683,0.164-0.777,0.371c-0.209,0.51-0.209,2.275-0.209,3.137v1.745
			c0,1.336-0.223,2.756-1.076,3.683c-0.667,0.719-1.807,1.125-2.943,1.125c-1.066,0-2.136-0.205-2.887-0.853
			c-0.813-0.677-1.195-1.806-1.195-3.637v-3.633c0-1.601-0.03-1.862-0.927-1.938l-0.384-0.033c-0.094-0.058-0.066-0.322,0.03-0.371
			c0.771,0.034,1.292,0.049,1.909,0.049c0.63,0,1.137-0.015,1.897-0.049c0.092,0.049,0.12,0.313,0.029,0.371l-0.37,0.033
			c-0.902,0.076-0.927,0.338-0.927,1.938v3.327c0,2.483,0.774,4.116,3.126,4.116c2.232,0,3.078-1.757,3.078-4.1V70.271z"/>
		<path fill="#5F6378" d="M183.921,74.26c0,1.623,0.026,1.852,0.918,1.936l0.497,0.045c0.092,0.062,0.057,0.333-0.031,0.379
			c-0.877-0.028-1.408-0.046-2.021-0.046c-0.618,0-1.154,0.018-2.138,0.046c-0.094-0.046-0.122-0.309,0-0.379l0.548-0.045
			c0.878-0.084,0.959-0.313,0.959-1.936v-6.878c0-0.479,0-0.5-0.456-0.5h-0.85c-0.67,0-1.509,0.03-1.896,0.392
			c-0.373,0.335-0.519,0.678-0.696,1.059c-0.12,0.092-0.333,0.017-0.396-0.108c0.239-0.69,0.475-1.678,0.58-2.292
			c0.045-0.033,0.248-0.045,0.301,0c0.088,0.49,0.599,0.477,1.301,0.477h6.241c0.836,0,0.972-0.036,1.198-0.436
			c0.077-0.028,0.254-0.015,0.281,0.051c-0.169,0.622-0.281,1.876-0.225,2.338c-0.071,0.125-0.328,0.125-0.41,0.032
			c-0.047-0.384-0.145-0.951-0.383-1.12c-0.357-0.263-0.936-0.392-1.778-0.392h-1.1c-0.47,0-0.445,0.021-0.445,0.525V74.26z"/>
		<path fill="#5F6378" d="M196.893,68.752c0-1.633-0.031-1.897-0.941-1.977l-0.38-0.028c-0.096-0.062-0.063-0.339,0.028-0.388
			c0.777,0.034,1.293,0.049,1.945,0.049c0.618,0,1.132-0.015,1.904-0.049c0.095,0.049,0.125,0.326,0.039,0.388l-0.391,0.028
			c-0.911,0.079-0.935,0.344-0.935,1.977v5.477c0,1.642,0.023,1.852,0.935,1.967l0.391,0.045c0.086,0.062,0.056,0.333-0.039,0.379
			c-0.772-0.028-1.286-0.046-1.904-0.046c-0.652,0-1.168,0.018-1.945,0.046c-0.092-0.046-0.124-0.289-0.028-0.379l0.38-0.045
			c0.91-0.115,0.941-0.325,0.941-1.967V68.752z"/>
		<path fill="#5F6378" d="M207.334,71.598c0-3.079,2.318-5.439,5.491-5.439c3.565,0,5.349,2.572,5.349,5.287
			c0,3.117-2.373,5.379-5.349,5.379C209.408,76.824,207.334,74.372,207.334,71.598z M216.628,71.922
			c0-2.537-1.122-5.281-4.061-5.281c-1.599,0-3.686,1.088-3.686,4.466c0,2.281,1.107,5.244,4.148,5.244
			C214.881,76.351,216.628,74.956,216.628,71.922z"/>
		<path fill="#5F6378" d="M235.648,73.96c0,0.456,0,2.285,0.047,2.692c-0.03,0.091-0.122,0.172-0.29,0.172
			c-0.188-0.254-0.637-0.806-1.983-2.329l-3.565-4.06c-0.421-0.486-1.469-1.746-1.791-2.087h-0.024
			c-0.066,0.184-0.081,0.54-0.081,0.998v3.358c0,0.73,0.015,2.729,0.282,3.195c0.088,0.168,0.396,0.254,0.781,0.295l0.476,0.045
			c0.093,0.124,0.081,0.302-0.034,0.379c-0.691-0.028-1.223-0.046-1.795-0.046c-0.65,0-1.066,0.018-1.604,0.046
			c-0.112-0.077-0.125-0.289-0.034-0.379l0.42-0.045c0.354-0.05,0.602-0.143,0.678-0.313c0.212-0.552,0.191-2.433,0.191-3.178
			v-4.449c0-0.43-0.012-0.764-0.338-1.114c-0.211-0.214-0.574-0.323-0.951-0.366l-0.262-0.028c-0.092-0.102-0.092-0.325,0.035-0.388
			c0.646,0.049,1.458,0.049,1.74,0.049c0.244,0,0.508-0.015,0.711-0.049c0.303,0.782,2.127,2.813,2.631,3.395l1.5,1.678
			c1.061,1.183,1.806,2.043,2.537,2.787h0.029c0.066-0.081,0.066-0.325,0.066-0.643v-3.305c0-0.726-0.023-2.729-0.314-3.186
			c-0.092-0.141-0.333-0.231-0.946-0.311l-0.263-0.028c-0.116-0.102-0.102-0.339,0.02-0.388c0.713,0.034,1.239,0.049,1.824,0.049
			c0.664,0,1.062-0.015,1.586-0.049c0.123,0.08,0.123,0.286,0.024,0.388l-0.214,0.028c-0.487,0.079-0.8,0.198-0.856,0.326
			c-0.261,0.554-0.231,2.466-0.231,3.17V73.96z"/>
		<path fill="#5F6378" d="M247.398,76.824c-1.289,0-2.1-0.406-2.397-0.579c-0.18-0.333-0.379-1.424-0.415-2.15
			c0.076-0.11,0.313-0.135,0.371-0.049c0.23,0.788,0.869,2.305,2.647,2.305c1.292,0,1.931-0.856,1.931-1.777
			c0-0.68-0.137-1.433-1.269-2.161l-1.458-0.95c-0.77-0.508-1.666-1.39-1.666-2.652c0-1.46,1.139-2.651,3.145-2.651
			c0.475,0,1.034,0.098,1.43,0.201c0.196,0.063,0.418,0.104,0.539,0.104c0.139,0.355,0.275,1.22,0.275,1.869
			c-0.053,0.092-0.309,0.138-0.383,0.049c-0.197-0.736-0.613-1.74-2.092-1.74c-1.507,0-1.837,1.004-1.837,1.708
			c0,0.897,0.737,1.543,1.311,1.895l1.231,0.772c0.971,0.597,1.931,1.494,1.931,2.961C250.692,75.664,249.407,76.824,247.398,76.824
			z"/>
	</g>
</g>
</svg>
